<svg xmlns="http://www.w3.org/2000/svg" viewBox="0 0 63 69.1"><defs><style>.cls-1{fill:none;stroke:#f2f2f2;stroke-miterlimit:10;stroke-width:9px;}</style></defs><g id="Calque_2" data-name="Calque 2"><g id="Calque_1-2" data-name="Calque 1"><path class="cls-1" d="M27.26,5.72,8.47,17.46a8.4,8.4,0,0,0-4,7.13V56.17A8.46,8.46,0,0,0,13,64.6h1a8.45,8.45,0,0,0,8.48-8.51l-.09-9.28a8.45,8.45,0,0,1,8.4-8.51l2,0a8.46,8.46,0,0,1,8.57,8.34l.1,9.64A8.45,8.45,0,0,0,50,64.6h0a8.46,8.46,0,0,0,8.49-8.43V24.59a8.4,8.4,0,0,0-4-7.13L35.74,5.72A8,8,0,0,0,27.26,5.72Z"/></g></g></svg>