<svg xmlns="http://www.w3.org/2000/svg" viewBox="0 0 61.5 68.5"><defs><style>.cls-1{fill:none;stroke:#f2f2f2;stroke-miterlimit:10;stroke-width:9px;}</style></defs><g id="Calque_2" data-name="Calque 2"><g id="Calque_1-2" data-name="Calque 1"><path class="cls-1" d="M41.25,11.94h0A7.39,7.39,0,0,0,33.9,4.5H27.6a7.39,7.39,0,0,0-7.35,7.44h0a7.39,7.39,0,0,1-7.35,7.44H11.85A7.39,7.39,0,0,0,4.5,26.81V56.56A7.39,7.39,0,0,0,11.85,64h37.8A7.39,7.39,0,0,0,57,56.56V26.81a7.39,7.39,0,0,0-7.35-7.43h-1A7.39,7.39,0,0,1,41.25,11.94Z"/><line class="cls-1" x1="9.5" y1="19.5" x2="50.5" y2="19.5"/></g></g></svg>