<svg xmlns="http://www.w3.org/2000/svg" viewBox="0 0 63.12 37.13"><g id="Calque_2" data-name="Calque 2"><g id="Calque_1-2" data-name="Calque 1"><path d="M4.83,23.88l48.5.18c6.44,0,6.44-10,0-10l-48.5-.18c-6.44,0-6.44,10,0,10l48.5.18v-10l-48.5-.18C-1.61,13.86-1.61,23.86,4.83,23.88Z"/><path d="M55.81,14.25l-20,13.5,7.52,4.31v-27L35.81,9.38l20,13.5c5.34,3.61,10.35-5.05,5-8.63L40.85.75c-3.2-2.17-7.52.71-7.52,4.31v27c0,3.61,4.32,6.49,7.52,4.32l20-13.5C66.16,19.3,61.16,10.63,55.81,14.25Z"/></g></g></svg>